<?xml version="1.0" encoding="UTF-8"?>
<svg version="1.1" xmlns="http://www.w3.org/2000/svg" width="200" height="200">
<path d="M0 0 C4.93852217 2.25265923 7.80894426 5.71486801 11 10 C12 13 12 13 11.60546875 15.9765625 C10.83277938 22.72134632 10.96939723 27.06309587 15.078125 32.69921875 C18.08702799 36.43443564 21.28225952 39.98877379 24.60131836 43.45043945 C26 45 26 45 27 47 C27.76183594 46.89300781 28.52367187 46.78601563 29.30859375 46.67578125 C36.08331678 45.88920292 41.94618594 45.47560132 48 49 C52.37968005 52.82397871 55.52831831 57.17495628 56.25 63.02734375 C56.63843107 70.12834922 54.43470116 75.1356457 49.875 80.5 C48 82 48 82 46 82 C46.30292969 82.83772949 46.60585937 83.67545898 46.91796875 84.53857422 C48.03867105 87.64248856 49.156529 90.74739637 50.27246094 93.85302734 C50.75634643 95.19783932 51.24136744 96.54224328 51.72753906 97.88623047 C52.42550666 99.81632453 53.11939898 101.74784137 53.8125 103.6796875 C54.23144531 104.84226074 54.65039062 106.00483398 55.08203125 107.20263672 C56 110 56 110 56 112 C56.99 111.9175 57.98 111.835 59 111.75 C64.27151699 111.77134217 68.68876883 113.86969854 72.546875 117.42578125 C76.80463526 122.27211425 78.43649285 126.48565317 78.25390625 132.94921875 C77.57165024 138.45974809 74.8111935 143.07991525 71 147 C65.416649 151.15172254 58.64894895 150.85242935 52 150 C46.77927284 148.15013605 43.10616259 144.93380409 40.6875 139.9453125 C38.46483775 133.65618864 38.60695429 128.24448893 40.97265625 122.01953125 C42.48428072 119.0480109 44.40752087 117.06068854 47 115 C47.66 115 48.32 115 49 115 C47.69405829 110.87915511 46.36105699 106.76840647 45.00219727 102.66479492 C44.54379254 101.2675124 44.09288703 99.86774647 43.6496582 98.46557617 C43.01125917 96.45051776 42.3464369 94.4459241 41.67578125 92.44140625 C41.0866394 90.62684937 41.0866394 90.62684937 40.4855957 88.77563477 C39.27555514 85.75442379 39.27555514 85.75442379 36.33276367 85.09741211 C35.56295166 85.06526611 34.79313965 85.03312012 34 85 C33.76216797 85.93005859 33.76216797 85.93005859 33.51953125 86.87890625 C31.82390441 93.31479375 29.85113835 99.60183498 27.6262207 105.87133789 C26.48765397 109.1615474 26 111.45909423 26 115 C27.64429829 116.68873879 29.31384218 118.35305515 31 120 C34.65224653 125.2894605 34.94435138 130.77787177 34 137 C31.91222043 142.16360296 28.6599757 145.93422651 24 149 C17.78539389 151.07153537 10.4411618 151.13339655 4.5 148.375 C-1.01253097 143.13809558 -4.11389613 139.15565859 -4.375 131.3125 C-4.31678476 125.29449925 -3.09964637 121.4306074 1 117 C5.30826202 113.63955562 8.71671132 111.84781494 14.1875 111.9375 C15.445625 111.958125 16.70375 111.97875 18 112 C18.26554687 110.70835937 18.53109375 109.41671875 18.8046875 108.0859375 C19.90467275 103.13309387 21.45026817 98.40880337 23.125 93.625 C23.67346111 92.05614612 24.21791449 90.48588381 24.7578125 88.9140625 C24.9964502 88.2329541 25.23508789 87.5518457 25.48095703 86.85009766 C26.13506001 84.83884121 26.13506001 84.83884121 26 82 C25.236875 81.401875 24.47375 80.80375 23.6875 80.1875 C20.40230412 77.51350335 19.34718315 76.04154944 18 72 C17.33054036 64.80101619 17.36346468 59.38798797 21 53 C20.24074219 52.03578125 19.48148437 51.0715625 18.69921875 50.078125 C17.69528885 48.80210194 16.69138391 47.52605924 15.6875 46.25 C15.18798828 45.61578125 14.68847656 44.9815625 14.17382812 44.328125 C11.74794301 41.24355585 9.33433646 38.15493938 7 35 C4.78105868 35.49309807 2.91710633 36.04144683 0.875 37.0625 C-4.67035664 38.87076847 -10.09432101 38.83156901 -15.4375 36.5 C-16.283125 36.005 -17.12875 35.51 -18 35 C-18.99 35 -19.98 35 -21 35 C-22.96516041 37.18712883 -24.73687906 39.34680496 -26.5 41.6875 C-26.98597656 42.31333984 -27.47195312 42.93917969 -27.97265625 43.58398438 C-30.55158167 46.93939824 -32.91135812 50.3095956 -35 54 C-34.5153125 54.69480469 -34.030625 55.38960937 -33.53125 56.10546875 C-30.85435398 61.1656217 -31.26788489 66.42517851 -32 72 C-33.80800859 76.53041233 -35.94961355 79.29974237 -40 82 C-38.70153238 88.31584737 -37.00398581 94.29363862 -34.875 100.375 C-34.32653889 101.94385388 -33.78208551 103.51411619 -33.2421875 105.0859375 C-33.0035498 105.7670459 -32.76491211 106.4481543 -32.51904297 107.14990234 C-32 109 -32 109 -32 112 C-30.845 111.9175 -29.69 111.835 -28.5 111.75 C-23.61136017 111.7586678 -20.0050498 113.24986581 -16 116 C-10.51755557 121.77099413 -9.58740092 126.29268671 -9.7578125 134.09375 C-10.2295362 139.7544344 -12.4473162 142.66884768 -16.5625 146.3125 C-22.29175932 151.00679635 -27.7604925 150.47674805 -35 150 C-40.84810027 148.12025348 -44.0030645 144.33055326 -47.1171875 139.13671875 C-49.10331246 134.32959328 -48.79663295 128.51308952 -47.2421875 123.609375 C-45.47017762 119.84210991 -43.70745469 117.11854554 -40 115 C-41.29846762 108.68415263 -42.99601419 102.70636138 -45.125 96.625 C-45.67346111 95.05614612 -46.21791449 93.48588381 -46.7578125 91.9140625 C-46.9964502 91.2329541 -47.23508789 90.5518457 -47.48095703 89.85009766 C-48 88 -48 88 -48 85 C-50.43305767 84.99225877 -50.43305767 84.99225877 -53 86 C-54.62668553 88.84291989 -54.62668553 88.84291989 -55.67578125 92.44140625 C-55.89066696 93.08367661 -56.10555267 93.72594696 -56.32695007 94.38768005 C-57.00860857 96.44004505 -57.66069247 98.50048349 -58.3125 100.5625 C-58.76956809 101.95570826 -59.22853032 103.34829664 -59.68945312 104.74023438 C-60.8150338 108.15323777 -61.91428682 111.57407709 -63 115 C-62.07574219 115.42732422 -62.07574219 115.42732422 -61.1328125 115.86328125 C-57.11789462 118.00310012 -55.35751626 121.11472164 -53.6875 125.25 C-52.53450361 131.53907121 -52.95299903 136.68036626 -56.125 142.3125 C-58.76964117 146.05533963 -61.52202712 148.73859919 -66 150 C-71.72324393 150.69372654 -77.72547446 151.10946359 -83 148.4375 C-87.67591458 144.63831941 -91.49425962 140.20344876 -92.23828125 134.01953125 C-92.45916991 127.45099994 -91.11792686 122.36565255 -86.57421875 117.4609375 C-81.23590243 112.74335564 -77.00769354 111.72518849 -70 112 C-69.85304688 111.41476563 -69.70609375 110.82953125 -69.5546875 110.2265625 C-69.33039063 109.36804688 -69.10609375 108.50953125 -68.875 107.625 C-68.6171875 106.63113281 -68.359375 105.63726562 -68.09375 104.61328125 C-67.24860059 101.8212698 -66.31658666 99.23438393 -65.21875 96.54296875 C-61.52812378 88.52532115 -61.52812378 88.52532115 -62.1015625 80.2421875 C-63.94491817 78.24711532 -65.84098191 76.64032175 -68 75 C-70.56776837 70.64595799 -70.65877516 65.932579 -70 61 C-68.14662608 55.11343171 -65.08884729 51.39256486 -60 48 C-55.21733708 45.89562832 -52.05821185 46.13281983 -47.0625 47 C-43.26962362 47.40671742 -41.71832459 47.57222467 -38.6953125 45.1640625 C-36.61779708 42.53685428 -34.82721694 39.80538447 -33 37 C-31.66855535 35.60236499 -30.33530807 34.20644435 -29 32.8125 C-24.98175418 27.74444221 -25.56417781 22.66706281 -26.046875 16.55078125 C-25.98296978 11.70996107 -24.55219437 8.64899045 -21.24609375 5.13671875 C-20.35083984 4.41935547 -20.35083984 4.41935547 -19.4375 3.6875 C-18.53837891 2.95080078 -18.53837891 2.95080078 -17.62109375 2.19921875 C-12.61501299 -1.50407473 -5.94053633 -0.48093282 0 0 Z M-18 13 C-19.69098046 17.65019626 -19.50940922 20.89967609 -17.4375 25.375 C-14.70254148 28.32033994 -12.81547476 29.72817508 -9 31 C-3.70114083 30.90703756 -0.74492906 29.74492906 3 26 C5.27435187 22.2590833 5.33188084 19.52006291 4.7265625 15.26171875 C3.40538717 11.1490278 0.77377734 8.94142303 -3 7 C-9.30500378 5.18623179 -14.29251552 7.79034508 -18 13 Z M-61 59 C-62.88412896 62.11290871 -63.00290727 63.83719308 -62.9375 67.5 C-61.79080071 71.78101067 -60.51244725 73.32748579 -57 76 C-52.77947573 77.87578856 -50.79308371 78.21507355 -46.3125 77 C-42.49259129 74.69364002 -40.9294554 73.01326724 -39 69 C-38.37741001 64.64187005 -38.68698601 62.59249076 -40.75 58.6875 C-44.12108906 54.6609214 -45.646294 54.15283777 -50.875 53.5625 C-55.72424062 53.68915927 -57.73552445 55.50234763 -61 59 Z M27 58 C24.41355536 61.4094043 24.63496885 64.8386449 25 69 C26.66223492 72.65691682 28.5031366 75.00179234 32 77 C35.96848203 78.3528916 38.43853201 78.08842168 42.1875 76.4375 C46.02393437 74.29144859 47.73049762 72.31630809 49 68 C49 61.91567979 47.08106025 59.1805983 43 55 C37.08445145 52.04222573 31.70961914 53.9631836 27 58 Z M-82 123 C-84.13796599 126.60781761 -85.02135002 128.93249898 -84.9375 133.125 C-83.61495659 137.1807998 -81.64320957 139.81008962 -78.1875 142.3125 C-74.93315587 143.33529387 -72.39535546 143.35124367 -69 143 C-65.94642921 141.38679279 -63.76166434 139.96939098 -61.625 137.25 C-60.47412421 133.10684716 -59.88924952 129.09298438 -61.9453125 125.21875 C-64.50259602 121.93770699 -66.98784855 120.02875678 -71 119 C-75.59506153 119 -78.50093752 120.12486674 -82 123 Z M-38.8125 123.6875 C-40.53428834 127.04045624 -41.2448347 130.26267024 -41 134 C-39.04508712 137.83742158 -36.89958984 141.05020508 -33 143 C-28.71061143 143.4085132 -26.13745017 143.48025674 -22.1875 141.8125 C-18.49725434 138.75486788 -17.1695145 136.33189965 -16.5625 131.5625 C-17.09120375 127.2573409 -18.17342768 125.27287321 -21 122 C-27.62459895 117.85962565 -33.01487453 118.28971077 -38.8125 123.6875 Z M7 122 C4.17342768 125.27287321 3.09120375 127.2573409 2.5625 131.5625 C3.1695145 136.33189965 4.49725434 138.75486788 8.1875 141.8125 C11.86294598 143.36435497 15.11451342 143.82119873 19 143 C22.0863281 141.29064905 24.24731725 138.94903477 26.4375 136.1875 C27.33965107 132.67913472 26.94378566 129.44003033 26 126 C23.59965227 122.05657158 21.45502609 120.22513217 17 119 C12.52961855 119 10.75220181 119.65487387 7 122 Z M48.625 124.1875 C46.51621278 127.83732403 46.20389038 130.93187985 47 135 C48.62390049 138.13180809 50.00266026 140.24339744 52.8125 142.375 C57.4717686 143.7062196 60.87771517 143.53956001 65.25 141.4375 C68.67243083 138.40398177 69.90454779 136.45483899 71 132 C70.56124576 127.87710304 69.51803043 124.36149492 66.37109375 121.5390625 C59.5187086 117.36547154 54.25922618 118.99808115 48.625 124.1875 Z " fill="#7CBBFF" transform="translate(107,25)"/>
</svg>
